<svg data-name="Layer 1" viewBox="0 0 16 16" xmlns="http://www.w3.org/2000/svg"><ellipse cx="6" cy="5.5" rx="1" ry="1.5" fill="#374151" class="fill-000000"></ellipse><ellipse cx="10" cy="5.5" rx="1" ry="1.5" fill="#374151" class="fill-000000"></ellipse><path d="M8.071 13.071A5.076 5.076 0 0 1 3 8h1.143A3.929 3.929 0 1 0 12 8h1.143a5.077 5.077 0 0 1-5.072 5.071Z" fill="#374151" class="fill-000000"></path><path d="M8 1a7 7 0 1 1-7 7 7.008 7.008 0 0 1 7-7m0-1a8 8 0 1 0 8 8 8 8 0 0 0-8-8Z" fill="#374151" class="fill-000000"></path></svg>